<svg xmlns="http://www.w3.org/2000/svg" viewBox="0 0 960 960">
<g fill="none" stroke="#000" stroke-width="36" stroke-linecap="round" stroke-linejoin="round">
<path d="M150 330 L600 330 L600 880 L150 880 Z"/>
<path d="M150 330 L330 200 L810 200 L600 330"/>
<path d="M810 200 L810 740 L600 880"/>
<ellipse cx="300" cy="265" rx="55" ry="22"/><path d="M245 265 V110 M355 265 V110"/><ellipse cx="300" cy="110" rx="55" ry="22"/>
<ellipse cx="520" cy="265" rx="55" ry="22"/><path d="M465 265 V70 M575 265 V70"/><ellipse cx="520" cy="70" rx="55" ry="22"/>
<rect x="240" y="440" width="120" height="70" rx="12"/>
<path d="M240 620 H510 M240 690 H510 M240 760 H510"/>
</g></svg>